<svg width="16" height="16" viewBox="0 0 16 16" fill="none" xmlns="http://www.w3.org/2000/svg">
<g clip-path="url(#clip0_3_0)">
<path d="M5.43606 4H2.97452C2.53929 4 2.12189 4.17289 1.81414 4.48065C1.50639 4.7884 1.3335 5.2058 1.3335 5.64103V13.0256C1.3335 13.4609 1.50639 13.8783 1.81414 14.186C2.12189 14.4938 2.53929 14.6667 2.97452 14.6667H10.3591C10.7944 14.6667 11.2118 14.4938 11.5195 14.186C11.8273 13.8783 12.0002 13.4609 12.0002 13.0256V10.5641" stroke="white" stroke-width="1.5" stroke-linecap="round" stroke-linejoin="round"/>
<path d="M5.3335 10.6667H7.80847L14.8209 3.65422C15.1491 3.32602 15.3335 2.88088 15.3335 2.41673C15.3335 1.95258 15.1491 1.50744 14.8209 1.17924C14.4927 0.851039 14.0476 0.666656 13.5834 0.666656C13.1193 0.666656 12.6741 0.851039 12.3459 1.17924L5.3335 8.19168V10.6667Z" stroke="white" stroke-width="1.5" stroke-linecap="round" stroke-linejoin="round"/>
<path d="M11.3335 2.66666L13.3335 4.66666" stroke="white" stroke-width="1.5" stroke-linecap="round" stroke-linejoin="round"/>
</g>
<defs>
<clipPath id="clip0_3_0">
<rect width="16" height="16" fill="white"/>
</clipPath>
</defs>
</svg>
